HIERARCHY
ROOT Hips
{
	OFFSET 15.585500 22.159004 44.358299
	CHANNELS 6 Xposition Yposition Zposition Zrotation Xrotation Yrotation
	JOINT Chest
	{
		OFFSET -0.128500 0.160400 6.566002
		CHANNELS 6 Xposition Yposition Zposition Zrotation Xrotation Yrotation
		JOINT Chest2
		{
			OFFSET 0.000000 0.000000 3.554802
			CHANNELS 6 Xposition Yposition Zposition Zrotation Xrotation Yrotation
			JOINT Neck
			{
				OFFSET 0.000000 0.000000 8.267998
				CHANNELS 6 Xposition Yposition Zposition Zrotation Xrotation Yrotation
				JOINT Head
				{
					OFFSET 0.000000 0.000002 2.173897
					CHANNELS 6 Xposition Yposition Zposition Zrotation Xrotation Yrotation
					End Site
					{
						OFFSET 0.000000 0.000000 7.718697
					}
				}
			}
			JOINT LeftCollar
			{
				OFFSET 2.057500 0.117599 5.946301
				CHANNELS 6 Xposition Yposition Zposition Zrotation Xrotation Yrotation
				JOINT LeftShoulder
				{
					OFFSET 4.957699 0.000000 0.000000
					CHANNELS 6 Xposition Yposition Zposition Zrotation Xrotation Yrotation
					JOINT LeftElbow
					{
						OFFSET 0.000000 0.000000 -8.465500
						CHANNELS 6 Xposition Yposition Zposition Zrotation Xrotation Yrotation
						JOINT LeftWrist
						{
							OFFSET 0.000000 -0.000002 -14.594898
							CHANNELS 6 Xposition Yposition Zposition Zrotation Xrotation Yrotation
							End Site
							{
								OFFSET 0.000000 0.000000 -2.173901
							}
						}
					}
				}
			}
			JOINT RightCollar
			{
				OFFSET -3.048500 -0.728800 6.604099
				CHANNELS 6 Xposition Yposition Zposition Zrotation Xrotation Yrotation
				JOINT RightShoulder
				{
					OFFSET -3.710299 0.000000 0.000000
					CHANNELS 6 Xposition Yposition Zposition Zrotation Xrotation Yrotation
					JOINT RightElbow
					{
						OFFSET 0.000000 0.000000 -10.450901
						CHANNELS 6 Xposition Yposition Zposition Zrotation Xrotation Yrotation
						JOINT RightWrist
						{
							OFFSET 0.000000 0.000000 -12.539200
							CHANNELS 6 Xposition Yposition Zposition Zrotation Xrotation Yrotation
							End Site
							{
								OFFSET 0.000000 -0.000002 -2.173901
							}
						}
					}
				}
			}
		}
	}
	JOINT LeftHip
	{
		OFFSET 2.442599 -0.601400 -2.767502
		CHANNELS 6 Xposition Yposition Zposition Zrotation Xrotation Yrotation
		JOINT LeftKnee
		{
			OFFSET 0.000000 -0.000002 -17.033703
			CHANNELS 6 Xposition Yposition Zposition Zrotation Xrotation Yrotation
			JOINT LeftAnkle
			{
				OFFSET 0.000000 -0.000002 -19.318800
				CHANNELS 6 Xposition Yposition Zposition Zrotation Xrotation Yrotation
				End Site
				{
					OFFSET 0.000000 -8.281900 0.000000
				}
			}
		}
	}
	JOINT RightHip
	{
		OFFSET -3.126200 -0.601400 -2.283501
		CHANNELS 6 Xposition Yposition Zposition Zrotation Xrotation Yrotation
		JOINT RightKnee
		{
			OFFSET 0.000000 -0.000002 -16.919401
			CHANNELS 6 Xposition Yposition Zposition Zrotation Xrotation Yrotation
			JOINT RightAnkle
			{
				OFFSET 0.000000 -0.000002 -18.035900
				CHANNELS 6 Xposition Yposition Zposition Zrotation Xrotation Yrotation
				End Site
				{
					OFFSET 0.000000 -9.230099 0.000000
				}
			}
		}
	}
}
MOTION
Frames: 5
Frame Time: 0.041667
23.488598 38.528603 8.278805 6.010771 11.194684 -2.413965 -0.128501 0.160403 6.566005 -6.066216 5.259897 1.511165 -0.000001 0.000008 3.554805 1.408360 -10.573333 -0.885110 0.000004 0.000004 8.268003 1.851062 -2.489715 1.140662 0.000003 0.000002 2.173895 0.044993 1.694395 0.800919 2.057506 0.117601 5.946306 -20.566326 0.071652 6.143550 4.957705 0.000004 0.000000 -38.633923 -8.205625 -66.504008 0.000001 0.000002 -8.465501 -148.455883 -134.553402 -128.135401 -0.000003 -0.000002 -14.594898 50.391363 -17.019995 1.565598 -3.048498 -0.728799 6.604101 26.256316 -1.137787 -8.535547 -3.710294 0.000001 -0.000001 38.088779 -11.691324 68.998305 -0.000000 0.000006 -10.450895 -25.601103 -72.355548 -37.561037 0.000009 0.000003 -12.539200 236.688075 9.737254 -114.918657 2.442593 -0.601399 -2.767503 134.397468 4.012291 102.471470 -0.000003 0.000000 -17.033705 -132.649350 22.330849 127.213516 0.000003 -0.000002 -19.318800 161.807222 134.944662 298.823317 -3.126198 -0.601402 -2.283498 -139.821035 -14.334426 -107.692692 0.000001 -0.000001 -16.919399 163.136459 34.250646 -176.974054 -0.000002 0.000005 -18.035894 -34.035044 32.661934 -208.712549
23.488199 38.517708 8.282700 6.017601 11.309776 -2.410058 -0.128500 0.160403 6.566010 -6.064316 5.216852 1.475767 -0.000000 0.000006 3.554808 1.416752 -10.580562 -0.872849 0.000004 0.000005 8.268000 1.826990 -2.763505 1.135599 -0.000002 0.000006 2.173901 0.018353 1.602453 0.855852 2.057508 0.117600 5.946306 -20.624031 0.124796 6.130273 4.957707 0.000002 0.000005 -38.797705 -8.304367 -66.873481 0.000003 -0.000001 -8.465498 -148.633208 -134.631539 -128.398158 0.000000 -0.000004 -14.594893 50.478090 -16.998874 1.866945 -3.048496 -0.728799 6.604099 26.293759 -1.088384 -8.540624 -3.710296 -0.000003 -0.000001 38.220212 -11.746421 69.405787 0.000002 0.000008 -10.450900 -25.284853 -72.048189 -37.188597 0.000009 0.000009 -12.539205 236.678021 9.591816 -115.015604 2.442589 -0.601398 -2.767497 134.410705 4.035928 102.526549 0.000000 0.000002 -17.033699 -132.573139 22.338494 127.196113 0.000002 -0.000001 -19.318804 161.499591 134.766449 298.356460 -3.126200 -0.601396 -2.283495 -139.853779 -14.258876 -107.724111 0.000001 0.000000 -16.919401 163.129315 34.220774 -176.988752 -0.000004 0.000000 -18.035898 -34.022432 32.644595 -208.699230
23.487501 38.507301 8.286297 6.023596 11.417726 -2.405404 -0.128499 0.160402 6.566008 -6.061427 5.170610 1.439344 -0.000001 0.000007 3.554814 1.425697 -10.585614 -0.861037 -0.000002 -0.000008 8.267995 1.800862 -3.031848 1.132707 0.000002 0.000002 2.173901 -0.007260 1.506775 0.910976 2.057504 0.117596 5.946306 -20.682168 0.176096 6.125924 4.957701 -0.000007 0.000010 -38.966325 -8.399715 -67.261360 0.000004 0.000003 -8.465504 -148.817705 -134.716274 -128.671407 0.000003 -0.000003 -14.594892 50.558788 -16.978833 2.181648 -3.048501 -0.728807 6.604098 26.337629 -1.033976 -8.546780 -3.710298 0.000006 0.000003 38.349569 -11.798426 69.819225 -0.000000 0.000003 -10.450898 -24.917898 -71.741302 -36.771997 0.000006 0.000006 -12.539202 236.668896 9.533016 -115.101474 2.442595 -0.601401 -2.767502 134.425281 4.060819 102.579401 -0.000001 0.000001 -17.033701 -132.505178 22.339700 127.182016 0.000005 0.000003 -19.318806 161.246081 134.617510 297.967713 -3.126201 -0.601399 -2.283495 -139.884487 -14.181927 -107.753413 0.000001 0.000004 -16.919397 163.125763 34.189974 -176.999926 -0.000004 0.000002 -18.035894 -34.009301 32.628241 -208.687524
23.486601 38.497398 8.289604 6.027609 11.518444 -2.400149 -0.128498 0.160400 6.566003 -6.056450 5.122943 1.401475 -0.000001 -0.000001 3.554807 1.435898 -10.589095 -0.849529 -0.000002 -0.000001 8.268000 1.771002 -3.297713 1.134254 0.000003 0.000007 2.173896 -0.030110 1.407193 0.965448 2.057504 0.117603 5.946304 -20.738290 0.223177 6.129727 4.957699 0.000005 0.000012 -39.143807 -8.488120 -67.665380 0.000001 0.000005 -8.465502 -149.004825 -134.806446 -128.955665 -0.000002 0.000002 -14.594895 50.632011 -16.958222 2.506721 -3.048503 -0.728799 6.604099 26.385202 -0.977064 -8.552442 -3.710297 0.000005 0.000005 38.477393 -11.848133 70.234992 0.000000 0.000012 -10.450896 -24.110752 -71.272785 -35.917455 0.000008 0.000005 -12.539201 236.662776 9.611579 -115.319917 2.442596 -0.601395 -2.767504 134.441673 4.086465 102.629576 -0.000002 0.000002 -17.033707 -132.445236 22.336308 127.171757 0.000002 0.000001 -19.318798 161.041435 134.495113 297.649781 -3.126196 -0.601397 -2.283496 -139.912354 -14.103068 -107.781205 0.000001 -0.000004 -16.919397 163.125886 34.158585 -177.007112 -0.000003 -0.000001 -18.035896 -33.995938 32.613313 -208.677825
23.485600 38.488003 8.292595 6.028952 11.611884 -2.394726 -0.128502 0.160397 6.566002 -6.048515 5.075364 1.362152 -0.000002 0.000009 3.554807 1.447953 -10.591714 -0.838196 -0.000001 -0.000000 8.267996 1.735769 -3.563777 1.142461 -0.000001 0.000002 2.173900 -0.048279 1.304248 1.018335 2.057508 0.117601 5.946301 -20.789467 0.264005 6.140135 4.957708 -0.000001 -0.000000 -39.334209 -8.566615 -68.082424 0.000003 0.000001 -8.465505 -149.196016 -134.903790 -129.248380 -0.000001 -0.000004 -14.594895 50.695959 -16.944299 2.836838 -3.048501 -0.728800 6.604099 26.432788 -0.920540 -8.555564 -3.710304 0.000004 0.000005 38.604656 -11.896658 70.648936 -0.000002 0.000005 -10.450897 -23.331349 -70.868595 -35.233463 0.000004 0.000002 -12.539200 236.619008 9.546588 -115.527145 2.442595 -0.601403 -2.767501 134.460593 4.112382 102.676424 -0.000002 -0.000003 -17.033703 -132.392767 22.330235 127.165241 0.000005 0.000002 -19.318800 160.875994 134.393138 297.387365 -3.126199 -0.601405 -2.283500 -139.936547 -14.022595 -107.808252 0.000001 0.000001 -16.919405 163.129520 34.126726 -177.010240 -0.000003 -0.000002 -18.035896 -33.983258 32.600384 -208.670189
